<svg id="Lager_1" data-name="Lager 1" xmlns="http://www.w3.org/2000/svg" viewBox="0 0 691.69 146.5"><defs><style>.cls-1,.cls-2{fill:#069;stroke:#069;}.cls-1{stroke-width:4px;}.cls-2{stroke-width:3px;}</style></defs><title>Netigate-Blue-RGB-2018</title><polygon class="cls-1" points="689.65 117.57 589.07 117.57 589.07 111.68 618.44 111.68 618.44 64.16 660.91 111.68 689.65 111.68 689.65 117.57"/><polygon class="cls-1" points="589.11 2 689.69 2 689.69 7.88 660.28 7.88 660.28 55 617.86 7.88 589.11 7.88 589.11 2"/><path class="cls-2" d="M103.21,230.25l40.85,65.66h.27V230.25h20.15v97.88H143l-40.71-65.53H102v65.53H81.82V230.25Z" transform="translate(-80.32 -209.87)"/><path class="cls-2" d="M199.33,311.13q4.38,4.25,12.61,4.25a17.37,17.37,0,0,0,10.14-2.94q4.25-2.95,5.21-6.24h17.13q-4.12,12.75-12.61,18.23t-20.57,5.48a40.44,40.44,0,0,1-15.08-2.67,31.25,31.25,0,0,1-11.38-7.61,34.28,34.28,0,0,1-7.2-11.79,43.1,43.1,0,0,1-2.54-15.08,41.34,41.34,0,0,1,2.61-14.8,34.25,34.25,0,0,1,18.85-19.74,36.72,36.72,0,0,1,14.74-2.88,33.72,33.72,0,0,1,15.77,3.5,31.49,31.49,0,0,1,11,9.39,38.69,38.69,0,0,1,6.24,13.43,50.15,50.15,0,0,1,1.37,15.76H194.53Q194.94,306.89,199.33,311.13Zm22-37.28Q217.83,270,210.7,270a17,17,0,0,0-7.75,1.57,14.79,14.79,0,0,0-4.93,3.91,14.32,14.32,0,0,0-2.6,4.93,22.12,22.12,0,0,0-.89,4.66H226.2Q224.82,277.68,221.33,273.85Z" transform="translate(-80.32 -209.87)"/><path class="cls-2" d="M296.11,257.26v13H281.85v35.09q0,4.93,1.65,6.58t6.58,1.64q1.64,0,3.15-.14a26.72,26.72,0,0,0,2.88-.41v15.08a46.66,46.66,0,0,1-5.48.54q-3,.14-5.89.14a56.19,56.19,0,0,1-8.57-.62,20.23,20.23,0,0,1-7.13-2.4,12.67,12.67,0,0,1-4.87-5.07,18.12,18.12,0,0,1-1.78-8.64V270.29H250.59v-13h11.79v-27h19.46v27Z" transform="translate(-80.32 -209.87)"/><path class="cls-2" d="M309.79,246.29v-16h19.47v16Zm19.47,11v70.88H309.79V257.26Z" transform="translate(-80.32 -209.87)"/><path class="cls-2" d="M410.62,333.35a24,24,0,0,1-5,10.21,29.81,29.81,0,0,1-11.1,8q-7.26,3.3-19.47,3.29a45.42,45.42,0,0,1-10.62-1.3,33.9,33.9,0,0,1-9.87-4,24.22,24.22,0,0,1-7.4-7.06,20.48,20.48,0,0,1-3.36-10.35h19.33q1.37,5.48,5.35,7.61a19.25,19.25,0,0,0,9.18,2.12q8.23,0,12-4.93t3.63-12.48v-9.32H393a19.28,19.28,0,0,1-9,8.29,29.09,29.09,0,0,1-12.27,2.67A30.91,30.91,0,0,1,358,323.26a25.89,25.89,0,0,1-9.46-7.67,32,32,0,0,1-5.42-11.38,53.92,53.92,0,0,1-1.71-13.78,43.93,43.93,0,0,1,2-13.22A34.52,34.52,0,0,1,349.27,266a28.15,28.15,0,0,1,9.52-7.74,28.63,28.63,0,0,1,13.09-2.88,27.4,27.4,0,0,1,12.27,2.61,21.17,21.17,0,0,1,8.84,8.77h.27v-9.46h18.51v66.35A47.54,47.54,0,0,1,410.62,333.35ZM384,309.76a15.14,15.14,0,0,0,5.21-4.39,19.35,19.35,0,0,0,3.09-6.24,25.92,25.92,0,0,0,1-7.33,40,40,0,0,0-.82-8.29,20.72,20.72,0,0,0-2.74-6.92,14.25,14.25,0,0,0-5.07-4.8,16,16,0,0,0-8-1.78,14.25,14.25,0,0,0-7.05,1.64,14.83,14.83,0,0,0-4.94,4.45,18.77,18.77,0,0,0-2.88,6.44,31.57,31.57,0,0,0-.89,7.61,38.5,38.5,0,0,0,.75,7.61,20.46,20.46,0,0,0,2.6,6.79,15.24,15.24,0,0,0,4.87,4.93,13.77,13.77,0,0,0,7.54,1.92A15.5,15.5,0,0,0,384,309.76Z" transform="translate(-80.32 -209.87)"/><path class="cls-2" d="M430,267.68a23.32,23.32,0,0,1,7.68-7.27,33.38,33.38,0,0,1,10.49-3.9,59.66,59.66,0,0,1,11.72-1.17,79.65,79.65,0,0,1,10.83.75,33.3,33.3,0,0,1,10,2.95,19.79,19.79,0,0,1,7.4,6.1Q491,269,491,275.49v36.87a73.91,73.91,0,0,0,.55,9.19,16.57,16.57,0,0,0,1.92,6.58H473.74a27.77,27.77,0,0,1-.89-3.36,29.47,29.47,0,0,1-.48-3.5,25.33,25.33,0,0,1-11,6.71,43.82,43.82,0,0,1-12.88,1.92,34.63,34.63,0,0,1-9.46-1.24,21.7,21.7,0,0,1-7.68-3.83,17.8,17.8,0,0,1-5.13-6.58,22.2,22.2,0,0,1-1.85-9.46,20.65,20.65,0,0,1,2.13-9.94,17.74,17.74,0,0,1,5.48-6.24,24.44,24.44,0,0,1,7.67-3.5,82.33,82.33,0,0,1,8.71-1.85q4.39-.69,8.64-1.1a52.24,52.24,0,0,0,7.54-1.24,13.16,13.16,0,0,0,5.21-2.4,5.27,5.27,0,0,0,1.78-4.59,10.29,10.29,0,0,0-1-5,7.55,7.55,0,0,0-2.74-2.88,10.8,10.8,0,0,0-4-1.37,32.6,32.6,0,0,0-4.87-.34q-5.76,0-9.05,2.47c-2.19,1.65-3.47,4.39-3.83,8.23H426.59A22.56,22.56,0,0,1,430,267.68Zm38.46,27.48a31.85,31.85,0,0,1-4,1q-2.13.41-4.46.68t-4.66.68a34.82,34.82,0,0,0-4.32,1.1,12.78,12.78,0,0,0-3.7,1.85,8.77,8.77,0,0,0-2.54,2.95,9.47,9.47,0,0,0-1,4.52,9.11,9.11,0,0,0,1,4.38,7.29,7.29,0,0,0,2.61,2.81,10.93,10.93,0,0,0,3.84,1.44,24,24,0,0,0,4.52.42q5.76,0,8.91-1.92a12.81,12.81,0,0,0,4.66-4.59,14.76,14.76,0,0,0,1.85-5.42,38.85,38.85,0,0,0,.34-4.38v-7.27A8.74,8.74,0,0,1,468.47,295.16Z" transform="translate(-80.32 -209.87)"/><path class="cls-2" d="M545,257.26v13H530.77v35.09q0,4.93,1.65,6.58T539,313.6c1.1,0,2.15,0,3.15-.14a26.79,26.79,0,0,0,2.88-.41v15.08a46.65,46.65,0,0,1-5.48.54q-3,.14-5.9.14a56.15,56.15,0,0,1-8.56-.62,20.25,20.25,0,0,1-7.13-2.4,12.71,12.71,0,0,1-4.87-5.07,18.17,18.17,0,0,1-1.78-8.64V270.29H499.51v-13h11.79v-27h19.46v27Z" transform="translate(-80.32 -209.87)"/><path class="cls-2" d="M578,311.13q4.38,4.25,12.61,4.25a17.38,17.38,0,0,0,10.15-2.94q4.24-2.95,5.21-6.24h17.13q-4.11,12.75-12.61,18.23T590,329.92a40.41,40.41,0,0,1-15.08-2.67,31.2,31.2,0,0,1-11.38-7.61,34.22,34.22,0,0,1-7.2-11.79,43.15,43.15,0,0,1-2.53-15.08,41.24,41.24,0,0,1,2.6-14.8,34.26,34.26,0,0,1,18.85-19.74A36.69,36.69,0,0,1,590,255.34a33.72,33.72,0,0,1,15.77,3.5,31.53,31.53,0,0,1,11,9.39A38.85,38.85,0,0,1,623,281.66a50.18,50.18,0,0,1,1.37,15.76H573.25Q573.65,306.89,578,311.13Zm22-37.28Q596.55,270,589.42,270a17,17,0,0,0-7.75,1.57,14.78,14.78,0,0,0-4.94,3.91,14.19,14.19,0,0,0-2.61,4.93,22.15,22.15,0,0,0-.89,4.66h31.66Q603.54,277.68,600,273.85Z" transform="translate(-80.32 -209.87)"/><text x="-80.32" y="-209.87"></text></svg>